# Blender 3.3.0
# www.blender.org
mtllib Byekorf.mtl
o BroodCase
v 0.529181 -0.659895 -1.799367
v 0.529181 -0.659895 1.482493
v -3.277030 -0.659895 -1.799367
v -3.277030 -0.659895 1.482493
v 0.529181 1.696846 1.482493
v 0.529181 1.696846 -1.799367
v -3.277030 1.696846 -1.799367
v -3.277030 1.696846 1.482493
v -3.390747 -0.659895 -1.938686
v -3.406334 -0.644643 -1.956134
v -3.390747 1.696846 -1.938686
v -3.406334 1.681595 -1.956134
v 0.658485 -0.644643 -1.956134
v 0.642898 -0.659895 -1.938686
v 0.642898 1.696846 -1.938686
v 0.658485 1.681595 -1.956134
v -3.390776 -0.659895 1.620399
v -3.406334 -0.644643 1.639260
v -3.390776 1.696846 1.620399
v -3.406334 1.681595 1.639260
v 0.658485 -0.644643 1.639260
v 0.642927 -0.659895 1.620399
v 0.642927 1.696846 1.620399
v 0.658485 1.681595 1.639260
vn -0.0000 -1.0000 -0.0000
vn -0.0000 -0.0000 1.0000
vn -0.0000 -0.0000 -1.0000
vn -0.0000 1.0000 -0.0000
vn 1.0000 -0.0000 -0.0000
vn -1.0000 -0.0000 -0.0000
vn -0.0000 -0.7529 -0.6581
vn -0.0000 0.7529 -0.6581
vn -0.6997 -0.7144 -0.0000
vn 0.6997 -0.7144 -0.0000
vn 0.6997 0.7144 -0.0000
vn -0.0000 0.7776 0.6288
vn -0.6997 0.7144 -0.0000
vn -0.0000 -0.7776 0.6288
vt 0.603479 0.655781
vt 0.608899 0.552294
vt 0.445700 0.526423
vt 0.479400 0.655781
vt 0.608751 0.526423
vt 0.608899 0.660530
vt 0.603480 0.501932
vt 0.445552 0.552294
vt 0.474792 0.497331
vt 0.479401 0.501932
vt 0.445552 0.660530
vt 0.474792 0.660382
vt 0.479401 0.501932
vt 0.608751 0.660381
vt 0.608899 0.552294
vt 0.603478 0.501931
vt 0.608899 0.660530
vt 0.445700 0.660382
vt 0.603480 0.655780
vt 0.445552 0.660530
vt 0.608751 0.497331
vt 0.479401 0.655781
vt 0.445552 0.552294
vt 0.608751 0.660381
vt 0.608747 0.497335
vt 0.606000 0.500011
vt 0.608703 0.497378
vt 0.399798 0.119799
vt 0.608747 0.660376
vt 0.605637 0.655005
vt 0.608457 0.657586
vt 0.399180 0.386597
vt 0.043531 0.192614
vt 0.949196 0.157508
vt 0.608457 0.657586
vt 0.608747 0.660378
vt 0.605636 0.655005
vt 0.608746 0.497334
vt 0.606000 0.500011
vt 0.044703 0.442969
vt 0.949898 0.417368
vt 0.608703 0.497378
vt 0.474187 0.497334
vt 0.468684 0.501068
vt 0.044317 0.193270
vt 0.465845 0.498583
vt 0.949541 0.157740
vt 0.474187 0.660378
vt 0.468564 0.657804
vt 0.045182 0.443494
vt 0.465846 0.660334
vt 0.950105 0.417483
vt 0.398392 0.120439
vt 0.465845 0.660334
vt 0.474187 0.660378
vt 0.468564 0.657804
vt 0.474187 0.497334
vt 0.468685 0.501069
vt 0.399594 0.385767
vt 0.465846 0.498583
s 0
g off
usemtl BroodCase-Inside
f 17/43/1 9/25/1 14/36/1 22/55/1 2/4/1 1/1/1 3/7/1 4/10/1
f 21/53/2 24/59/2 20/50/2 18/45/2
f 22/55/1 17/43/1 4/10/1 2/4/1
f 10/28/3 12/32/3 16/40/3 13/33/3
f 8/22/4 19/48/4 23/57/4 5/13/4
f 5/13/4 23/57/4 15/38/4 11/29/4 19/48/4 8/22/4 7/19/4 6/16/4
f 13/34/5 16/41/5 24/59/5 21/53/5
f 7/20/2 3/8/2 1/2/2 6/17/2
f 6/18/6 1/3/6 2/5/6 5/14/6
f 2/6/3 4/11/3 8/23/3 5/15/3
f 4/12/5 3/9/5 7/21/5 8/24/5
f 10/27/7 13/35/7 14/37/7 9/26/7
f 11/30/8 15/39/8 16/42/8 12/31/8
f 9/26/9 17/44/9 18/46/9 10/27/9
f 13/35/10 21/54/10 22/56/10 14/37/10
f 15/39/11 23/58/11 24/60/11 16/42/11
f 20/51/12 24/60/12 23/58/12 19/49/12
f 12/31/13 20/51/13 19/49/13 11/30/13
f 17/44/14 22/56/14 21/54/14 18/46/14
f 18/47/6 20/52/6 12/32/6 10/28/6
o Super
v 0.529181 1.696846 -1.799367
v 0.529181 1.696846 1.482493
v -3.277030 1.696846 -1.799367
v -3.277030 1.696846 1.482493
v 0.529181 3.125572 1.482493
v 0.529181 3.125572 -1.799367
v -3.277030 3.125572 -1.799367
v -3.277030 3.125572 1.482493
v -3.390747 1.696846 -1.938686
v -3.406334 1.706092 -1.956134
v -3.390747 3.125572 -1.938686
v -3.406334 3.116326 -1.956134
v 0.658485 1.706092 -1.956134
v 0.642898 1.696846 -1.938686
v 0.642898 3.125572 -1.938686
v 0.658485 3.116326 -1.956134
v -3.390776 1.696846 1.620399
v -3.406334 1.706092 1.639260
v -3.390776 3.125572 1.620399
v -3.406334 3.116326 1.639260
v 0.658485 1.706092 1.639260
v 0.642927 1.696846 1.620399
v 0.642927 3.125572 1.620399
v 0.658485 3.116326 1.639260
vn -0.0000 -1.0000 -0.0000
vn -0.0000 -0.0000 1.0000
vn -0.0000 -0.0000 -1.0000
vn -0.0000 1.0000 -0.0000
vn 1.0000 -0.0000 -0.0000
vn -1.0000 -0.0000 -0.0000
vn -0.0000 -0.8836 -0.4682
vn -0.0000 0.8836 -0.4682
vn -0.5105 -0.8598 -0.0000
vn 0.5105 -0.8599 -0.0000
vn 0.5105 0.8599 -0.0000
vn -0.0000 0.8979 0.4402
vn -0.5105 0.8599 -0.0000
vn -0.0000 -0.8979 0.4402
vt 0.146447 0.146447
vt 0.590476 0.655898
vt 0.593256 0.494782
vt 0.500000 0.000000
vt 0.000000 1.000000
vt 0.593256 0.659633
vt 0.429397 0.500128
vt 0.000000 0.500000
vt 0.590476 0.496166
vt 0.596757 0.497774
vt 0.146447 0.853553
vt 1.000000 1.000000
vt 0.592026 0.500128
vt 0.433222 0.497774
vt 0.430922 0.663397
vt 0.513711 0.663397
vt 0.428405 0.659633
vt 0.429397 0.662757
vt 0.455170 0.639149
vt 0.430744 0.655898
vt 0.428405 0.494782
vt 0.430922 0.580608
vt 0.430744 0.496166
vt 0.596757 0.661309
vt 0.430922 0.497820
vt 0.455170 0.522068
vt 0.592026 0.662757
vt 0.433222 0.661309
vt 0.853553 0.853553
vt 0.000000 1.000000
vt 0.000000 0.000000
vt 0.000000 0.000000
vt 0.000000 1.000000
vt 0.394131 0.480987
vt 0.572251 0.522068
vt 0.430922 0.497820
vt 0.430922 0.663397
vt 0.430922 0.663397
vt 0.430922 0.497820
vt 0.393670 0.663099
vt 0.048104 0.561620
vt 0.949374 0.509624
vt 1.000000 0.000000
vt 0.000000 0.000000
vt 1.000000 0.500000
vt 1.000000 1.000000
vt 0.000000 1.000000
vt 0.596499 0.580608
vt 0.596499 0.497820
vt 0.430922 0.497820
vt 0.046887 0.734948
vt 0.947463 0.687583
vt 0.596499 0.663397
vt 0.430922 0.663397
vt 0.500000 1.000000
vt 1.000000 0.000000
vt 0.000000 0.000000
vt 0.048818 0.561528
vt 1.000000 1.000000
vt 0.000000 1.000000
vt 0.949380 0.509131
vt 0.596499 0.497820
vt 0.513711 0.497820
vt 0.430922 0.663397
vt 0.596499 0.663397
vt 0.046869 0.735625
vt 0.430922 0.497820
vt 0.596499 0.497820
vt 0.947965 0.687035
vt 0.392403 0.481635
vt 1.000000 0.000000
vt 1.000000 1.000000
vt 0.853553 0.146447
vt 0.000000 0.000000
vt 1.000000 1.000000
vt 1.000000 0.000000
vt 0.572251 0.639149
vt 0.596499 0.497820
vt 0.596499 0.663397
vt 0.392551 0.662438
vt 0.596499 0.663397
vt 0.596499 0.497820
s 0
g off
usemtl Super
f 41/115/15 33/89/15 38/105/15 46/133/15 26/64/15 25/61/15 27/68/15 28/71/15
f 45/130/16 48/140/16 44/126/16 42/118/16
f 46/134/15 41/116/15 28/72/15 26/65/15
f 34/94/17 36/100/17 40/111/17 37/101/17
f 32/85/18 43/122/18 47/139/18 29/75/18
f 29/76/18 47/137/18 39/108/18 35/95/18 43/123/18 32/86/18 31/82/18 30/79/18
f 37/102/19 40/112/19 48/140/19 45/130/19
f 31/83/16 27/69/16 25/62/16 30/80/16
f 30/81/20 25/63/20 26/66/20 29/77/20
f 26/67/17 28/73/17 32/87/17 29/78/17
f 28/74/19 27/70/19 31/84/19 32/88/19
f 34/92/21 37/103/21 38/106/21 33/90/21
f 35/96/22 39/109/22 40/113/22 36/98/22
f 33/91/23 41/116/23 42/119/23 34/93/23
f 37/104/24 45/131/24 46/135/24 38/107/24
f 39/110/25 47/138/25 48/141/25 40/114/25
f 44/127/26 48/142/26 47/139/26 43/124/26
f 36/99/27 44/128/27 43/125/27 35/97/27
f 41/117/28 46/136/28 45/132/28 42/120/28
f 42/121/20 44/129/20 36/100/20 34/94/20
o Cube
v -3.612300 2.710292 -2.162119
v -3.612300 3.266112 -2.162119
v -3.449281 3.136980 -1.979056
v 0.855305 2.710292 -2.162119
v 0.855305 3.266112 -2.162119
v 0.692287 3.136980 -1.979056
v -3.612300 2.710292 1.859946
v -3.612300 3.266112 1.859946
v -3.449281 3.136980 1.676883
v 0.855305 2.710292 1.859946
v 0.855305 3.266112 1.859946
v 0.692287 3.136980 1.676883
v 0.692287 2.710292 -1.979056
v 0.692287 2.710292 1.676883
v -3.449281 2.710292 -1.979056
v -3.449281 2.710292 1.676883
vn -0.0000 -0.0000 -1.0000
vn 1.0000 -0.0000 -0.0000
vn -0.0000 -0.0000 1.0000
vn -1.0000 -0.0000 -0.0000
vn -0.0000 -1.0000 -0.0000
vn -0.0000 1.0000 -0.0000
vt 0.988880 0.853778
vt 0.010327 0.890410
vt 0.570584 0.635786
vt 0.594685 0.495313
vt 0.988875 0.921371
vt 0.009233 0.955714
vt 0.007924 0.956251
vt 0.594685 0.495313
vt 0.594685 0.659887
vt 0.388464 0.812421
vt 0.594685 0.577600
vt 0.389583 0.881905
vt 0.582019 0.993851
vt 0.594685 0.495313
vt 0.594685 0.659887
vt 0.430112 0.659887
vt 0.389036 0.812067
vt 0.512398 0.495313
vt 0.430112 0.495313
vt 0.390479 0.881661
vt 0.391063 0.882209
vt 0.430112 0.495313
vt 0.594685 0.659887
vt 0.594685 0.495313
vt 0.010586 0.889988
vt 0.988296 0.853651
vt 0.570584 0.519415
vt 0.008683 0.955999
vt 0.988758 0.921212
vt 0.992516 0.921557
vt 0.594685 0.495313
vt 0.430112 0.495313
vt 0.454213 0.635786
vt 0.430112 0.495313
vt 0.430112 0.659887
vt 0.430112 0.577600
vt 0.430112 0.495313
vt 0.594685 0.659887
vt 0.512398 0.659887
vt 0.594685 0.659887
vt 0.430112 0.659887
vt 0.430112 0.495313
vt 0.454213 0.519415
vt 0.430112 0.659887
s 0
g off
usemtl Lid
f 49/143/29 50/147/29 53/154/29 52/152/29
f 52/152/30 53/154/30 59/170/30 58/167/30
f 58/168/31 59/171/31 56/162/31 55/159/31
f 55/159/32 56/162/32 50/148/32 49/144/32
f 63/181/33 49/145/33 52/153/33 58/169/33 55/160/33 64/185/33 62/178/33 61/175/33
f 55/161/33 49/146/33 63/182/33 64/186/33
f 59/172/34 53/155/34 50/149/34 56/163/34
f 61/176/31 54/156/31 51/151/31 63/183/31
f 62/179/32 60/173/32 54/157/32 61/177/32
f 57/164/29 60/173/29 62/180/29 64/186/29
f 63/184/30 51/150/30 57/165/30 64/186/30
f 60/174/33 57/166/33 51/151/33 54/158/33
